<?xml version="1.0" encoding="utf-8"?>
<!-- Generator: Adobe Illustrator 14.0.0, SVG Export Plug-In . SVG Version: 6.00 Build 43363)  -->
<!DOCTYPE svg PUBLIC "-//W3C//DTD SVG 1.0//EN" "http://www.w3.org/TR/2001/REC-SVG-20010904/DTD/svg10.dtd">
<svg version="1.0" id="Layer_1" xmlns="http://www.w3.org/2000/svg" xmlns:xlink="http://www.w3.org/1999/xlink" x="0px" y="0px"
	 width="400px" height="400px" viewBox="0 0 400 400" enable-background="new 0 0 400 400" xml:space="preserve">
<g>
	<polyline fill="#AC1E23" stroke="#AC1E23" points="58.283,72.728 50.495,82.918 64.676,99.281 59.845,106.1 38.022,99.583 
		32.527,108.917 48.906,124.63 44.761,133.46 22.12,130.994 18.402,141.17 37.353,153.663 35.198,161.737 12.471,163.221 
		10.567,173.886 31.391,182.916 30.595,192.345 8.501,197.875 8.538,208.708 30.644,213.863 31.419,222.184 10.613,231.449 
		12.521,242.113 35.185,243.37 37.358,251.338 18.459,264.047 22.177,274.224 44.717,271.559 48.275,279.121 31.856,294.905 
		37.275,304.286 59.016,297.767 63.945,304.764 50.522,323.163 57.491,331.458 77.768,321.255 83.693,327.149 73.651,347.591 
		81.948,354.556 100.156,341.005 106.745,345.609 100.346,367.466 109.712,372.911 125.336,356.445 132.907,359.984 
		130.381,382.619 140.546,386.363 153.089,367.447 162.516,369.953 164.123,392.671 174.799,394.517 183.716,373.644 
		192.045,374.325 197.554,396.424 208.387,396.397 213.563,374.299 222.982,373.402 232.359,394.157 243.014,392.19 
		244.148,369.521 252.198,367.275 265.021,386.098 275.175,382.32 272.374,359.796 279.827,356.238 295.7,372.57 305.052,367.1 
		298.414,345.394 305.222,340.546 323.678,353.891 331.943,346.887 321.655,326.655 327.235,321.008 347.696,331.012 
		354.646,322.703 341.062,304.519 345.828,297.655 367.71,303.974 373.121,294.589 356.599,279.026 360.548,270.428 
		383.207,272.725 386.85,262.522 367.806,250.17 369.9,242.08 392.616,240.427 394.439,229.749 373.55,220.874 374.209,212.641 
		396.3,207.101 396.258,196.267 374.15,191.123 373.371,182.802 394.173,173.527 392.26,162.864 369.597,161.618 367.908,155.331 
		386.929,142.807 383.312,132.595 360.745,135.04 357.263,127.443 373.833,111.819 368.505,102.388 346.702,108.694 
		342.146,102.072 355.802,83.847 348.938,75.463 328.534,85.406 322.685,79.437 332.986,59.125 324.779,52.054 306.399,65.372 
		298.45,59.72 304.91,37.88 295.56,32.409 279.891,48.831 272.329,45.272 274.918,22.644 264.764,18.871 252.167,37.752 
		243.031,35.29 241.524,12.564 230.859,10.67 221.849,31.504 213.522,30.784 208.111,8.661 197.278,8.639 192.004,30.715 
		183.776,31.435 174.637,10.574 163.961,12.418 162.567,35.073 154.492,37.227 141.887,18.258 131.69,21.919 134.232,44.474 
		126.467,48.079 110.754,31.593 101.351,36.973 107.777,58.742 100.922,63.522 82.596,50 74.265,56.923 84.354,77.253 
		78.651,82.918 58.283,72.728 	"/>
	<path fill="none" stroke="#000000" stroke-width="2" d="M202.4,120.797"/>
	<circle fill="#FFFFFF" stroke="#AC1E23" cx="202.4" cy="202.532" r="146.521"/>
	<g>
		<defs>
			<circle id="SVGID_1_" cx="202.4" cy="202.532" r="146.521"/>
		</defs>
		<clipPath id="SVGID_2_">
			<use xlink:href="#SVGID_1_"  overflow="visible"/>
		</clipPath>
		<g clip-path="url(#SVGID_2_)">
			<rect x="41.582" y="44.716" fill="none" stroke="#AC1E23" stroke-width="2" width="305.992" height="305.992"/>
			<line fill="none" stroke="#AC1E23" stroke-width="2" x1="41.582" y1="336.064" x2="347.573" y2="336.064"/>
			<line fill="none" stroke="#AC1E23" stroke-width="2" x1="41.582" y1="321.572" x2="347.573" y2="321.572"/>
			<line fill="none" stroke="#AC1E23" stroke-width="2" x1="41.582" y1="306.93" x2="347.573" y2="306.93"/>
			<line fill="none" stroke="#AC1E23" stroke-width="2" x1="41.582" y1="292.438" x2="347.573" y2="292.438"/>
			<line fill="none" stroke="#AC1E23" stroke-width="2" x1="41.582" y1="277.795" x2="347.573" y2="277.795"/>
			<line fill="none" stroke="#AC1E23" stroke-width="2" x1="41.582" y1="263.303" x2="347.573" y2="263.303"/>
			<line fill="none" stroke="#AC1E23" stroke-width="2" x1="41.582" y1="248.661" x2="347.573" y2="248.661"/>
			<line fill="none" stroke="#AC1E23" stroke-width="2" x1="41.582" y1="234.168" x2="347.573" y2="234.168"/>
			<line fill="none" stroke="#AC1E23" stroke-width="2" x1="41.582" y1="219.525" x2="347.573" y2="219.525"/>
			<line fill="none" stroke="#AC1E23" stroke-width="2" x1="41.582" y1="205.033" x2="347.573" y2="205.033"/>
			<line fill="none" stroke="#AC1E23" stroke-width="2" x1="41.582" y1="190.39" x2="347.573" y2="190.39"/>
			<line fill="none" stroke="#AC1E23" stroke-width="2" x1="41.582" y1="175.897" x2="347.573" y2="175.897"/>
			<line fill="none" stroke="#AC1E23" stroke-width="2" x1="41.582" y1="161.255" x2="347.573" y2="161.255"/>
			<line fill="none" stroke="#AC1E23" stroke-width="2" x1="41.582" y1="146.762" x2="347.573" y2="146.762"/>
			<line fill="none" stroke="#AC1E23" stroke-width="2" x1="41.582" y1="132.12" x2="347.573" y2="132.12"/>
			<line fill="none" stroke="#AC1E23" stroke-width="2" x1="41.582" y1="117.628" x2="347.573" y2="117.628"/>
			<line fill="none" stroke="#AC1E23" stroke-width="2" x1="41.582" y1="102.985" x2="347.573" y2="102.985"/>
			<line fill="none" stroke="#AC1E23" stroke-width="2" x1="41.582" y1="88.493" x2="347.573" y2="88.493"/>
			<line fill="none" stroke="#AC1E23" stroke-width="2" x1="41.582" y1="73.851" x2="347.573" y2="73.851"/>
			<line fill="none" stroke="#AC1E23" stroke-width="2" x1="41.582" y1="59.358" x2="347.573" y2="59.358"/>
			<line fill="none" stroke="#AC1E23" stroke-width="2" x1="333.007" y1="44.716" x2="333.007" y2="350.708"/>
			<line fill="none" stroke="#AC1E23" stroke-width="2" x1="318.439" y1="44.716" x2="318.439" y2="350.708"/>
			<line fill="none" stroke="#AC1E23" stroke-width="2" x1="303.871" y1="44.716" x2="303.871" y2="350.708"/>
			<line fill="none" stroke="#AC1E23" stroke-width="2" x1="289.303" y1="44.716" x2="289.303" y2="350.708"/>
			<line fill="none" stroke="#AC1E23" stroke-width="2" x1="274.736" y1="44.716" x2="274.736" y2="350.708"/>
			<line fill="none" stroke="#AC1E23" stroke-width="2" x1="260.168" y1="44.716" x2="260.168" y2="350.708"/>
			<line fill="none" stroke="#AC1E23" stroke-width="2" x1="245.601" y1="44.716" x2="245.601" y2="350.708"/>
			<line fill="none" stroke="#AC1E23" stroke-width="2" x1="231.034" y1="44.716" x2="231.034" y2="350.708"/>
			<line fill="none" stroke="#AC1E23" stroke-width="2" x1="216.466" y1="44.716" x2="216.466" y2="350.708"/>
			<line fill="none" stroke="#AC1E23" stroke-width="2" x1="201.899" y1="44.716" x2="201.899" y2="350.708"/>
			<line fill="none" stroke="#AC1E23" stroke-width="2" x1="187.256" y1="44.716" x2="187.256" y2="350.708"/>
			<line fill="none" stroke="#AC1E23" stroke-width="2" x1="172.688" y1="44.716" x2="172.688" y2="350.708"/>
			<line fill="none" stroke="#AC1E23" stroke-width="2" x1="158.121" y1="44.716" x2="158.121" y2="350.708"/>
			<line fill="none" stroke="#AC1E23" stroke-width="2" x1="143.554" y1="44.716" x2="143.554" y2="350.708"/>
			<line fill="none" stroke="#AC1E23" stroke-width="2" x1="128.987" y1="44.716" x2="128.987" y2="350.708"/>
			<line fill="none" stroke="#AC1E23" stroke-width="2" x1="114.419" y1="44.716" x2="114.419" y2="350.708"/>
			<line fill="none" stroke="#AC1E23" stroke-width="2" x1="99.851" y1="44.716" x2="99.851" y2="350.708"/>
			<line fill="none" stroke="#AC1E23" stroke-width="2" x1="85.283" y1="44.716" x2="85.283" y2="350.708"/>
			<line fill="none" stroke="#AC1E23" stroke-width="2" x1="70.716" y1="44.716" x2="70.716" y2="350.708"/>
			<line fill="none" stroke="#AC1E23" stroke-width="2" x1="56.148" y1="44.716" x2="56.148" y2="350.708"/>
		</g>
		<use xlink:href="#SVGID_1_"  overflow="visible" fill="none" stroke="#AC1E23"/>
	</g>
	<g>
		<defs>
			<circle id="SVGID_3_" cx="202.4" cy="203.623" r="146.521"/>
		</defs>
		<clipPath id="SVGID_4_">
			<use xlink:href="#SVGID_3_"  overflow="visible"/>
		</clipPath>
		<g clip-path="url(#SVGID_4_)">
			<rect x="70.717" y="146.762" fill="#AC1E23" stroke="#AC1E23" width="14.567" height="58.271"/>
			<rect x="85.285" y="117.628" fill="#AC1E23" stroke="#AC1E23" width="14.567" height="87.405"/>
			<rect x="158.123" y="277.795" fill="#AC1E23" stroke="#AC1E23" width="44.277" height="77.551"/>
			<rect x="143.553" y="306.93" fill="#AC1E23" stroke="#AC1E23" width="14.57" height="48.417"/>
			<rect x="114.419" y="277.795" fill="#AC1E23" stroke="#AC1E23" width="29.134" height="63.724"/>
			<rect x="99.852" y="292.438" fill="#AC1E23" stroke="#AC1E23" width="14.567" height="38.699"/>
			<rect x="78" y="277.795" fill="#AC1E23" stroke="#AC1E23" width="21.852" height="38.775"/>
			<rect x="114.419" y="161.255" fill="#AC1E23" stroke="#AC1E23" width="14.567" height="43.778"/>
			<rect x="128.986" y="175.897" fill="#AC1E23" stroke="#AC1E23" width="14.567" height="29.136"/>
			<rect x="158.123" y="73.82" fill="#AC1E23" stroke="#AC1E23" width="14.567" height="131.213"/>
			<rect x="172.69" y="117.628" fill="#AC1E23" stroke="#AC1E23" width="14.568" height="87.405"/>
			<rect x="187.259" y="88.493" fill="#AC1E23" stroke="#AC1E23" width="15.142" height="116.541"/>
		</g>
		
			<rect x="55.879" y="205.033" clip-path="url(#SVGID_4_)" fill="#FFFFFF" stroke="#AC1E23" stroke-width="2" width="293.042" height="72.762"/>
		<use xlink:href="#SVGID_3_"  overflow="visible" fill="none" stroke="#AC1E23"/>
	</g>
	<g>
		<polygon fill="none" stroke="#AC1E23" stroke-width="2" points="330.654,263.923 74.146,263.923 74.146,218.079 253.156,218.079 
			330.654,218.079 		"/>
		<g>
			<path fill="#AC1E23" stroke="#AC1E23" stroke-width="2" d="M276.078,260.213c0,7.172-5.864,12.987-13.098,12.987h-18.12
				c-7.234,0-13.099-5.815-13.099-12.987V221.81c0-7.173,5.864-12.988,13.099-12.988h18.12c7.233,0,13.098,5.815,13.098,12.988
				V260.213z"/>
			<rect x="231.762" y="218.079" fill="#FFFFFF" stroke="#AC1E23" stroke-width="2" width="43.963" height="45.125"/>
			<line fill="none" stroke="#AC1E23" stroke-width="2" x1="253.156" y1="218.079" x2="253.156" y2="263.923"/>
		</g>
		<polyline fill="none" stroke="#AC1E23" stroke-width="2" points="74.146,248.563 136.998,248.563 140.729,243.457 
			143.731,253.826 148.097,243.457 151.565,253.826 156.011,249.187 204.221,249.187 208.131,243.457 212.77,253.826 
			217.193,243.457 220.684,253.826 224.23,248.641 282.082,248.641 287.267,243.457 291.087,253.826 294.635,243.457 
			298.455,253.826 301.184,249.187 330.654,249.187 		"/>
		<g>
			<line fill="none" stroke="#AC1E23" stroke-width="2" x1="315.919" y1="232.269" x2="330.654" y2="232.269"/>
			<polyline fill="none" stroke="#AC1E23" stroke-width="2" points="74.146,234.07 115.624,234.07 119.717,226.538 122.431,238.817 
				126.812,226.538 129.714,238.817 133.088,232.269 184.391,232.269 185.481,232.269 187.984,226.538 192.85,238.817 
				197.216,226.538 201.036,238.817 204.221,232.269 292.997,232.269 298.182,226.538 302.548,238.817 306.368,226.538 
				310.734,238.817 313.736,232.269 317.011,232.269 			"/>
		</g>
	</g>
</g>
</svg>
